<svg xmlns="http://www.w3.org/2000/svg" fill="none" viewBox="0 0 200 200" width="400" height="400" class="coolshapes misc-11 "><g clip-path="url(#cs_clip_1_misc-11)"><mask id="cs_mask_1_misc-11" style="mask-type:alpha" width="200" height="200" x="0" y="0" maskUnits="userSpaceOnUse"><path fill="#fff" d="M200 100L100 0v70H0v60h100v70l100-100z"></path></mask><g mask="url(#cs_mask_1_misc-11)"><path fill="#fff" d="M200 0H0v200h200V0z"></path><path fill="#07FFE1" d="M200 0H0v200h200V0z"></path><g filter="url(#filter0_f_844_2825)"><path fill="#FFE500" d="M193 97H23v103h170V97z"></path><path fill="#FF37BB" d="M116 54H-41v92h157V54z"></path></g></g></g><defs><filter id="filter0_f_844_2825" width="394" height="306" x="-121" y="-26" color-interpolation-filters="sRGB" filterUnits="userSpaceOnUse"><feFlood flood-opacity="0" result="BackgroundImageFix"></feFlood><feBlend in="SourceGraphic" in2="BackgroundImageFix" result="shape"></feBlend><feGaussianBlur result="effect1_foregroundBlur_844_2825" stdDeviation="40"></feGaussianBlur></filter><clipPath id="cs_clip_1_misc-11"><path fill="#fff" d="M0 0H200V200H0z"></path></clipPath></defs><g style="mix-blend-mode:overlay" mask="url(#cs_mask_1_misc-11)"><path fill="gray" stroke="transparent" d="M200 0H0v200h200V0z" filter="url(#cs_noise_1_misc-11)"></path></g><defs><filter id="cs_noise_1_misc-11" width="100%" height="100%" x="0%" y="0%" filterUnits="objectBoundingBox"><feTurbulence baseFrequency="0.6" numOctaves="5" result="out1" seed="4"></feTurbulence><feComposite in="out1" in2="SourceGraphic" operator="in" result="out2"></feComposite><feBlend in="SourceGraphic" in2="out2" mode="overlay" result="out3"></feBlend></filter></defs></svg>